<svg xmlns="http://www.w3.org/2000/svg" viewBox="0 0 200 200" fill="none">
  <path d="
    M 108,8 L 118,11 L 128,16 L 136,22 L 144,30
    L 152,40 L 160,52 L 167,64 L 174,76 L 178,88
    L 176,98 L 172,108 L 165,118 L 156,128 L 146,138
    L 136,148 L 124,158 L 112,166 L 100,172 L 88,178
    L 74,180 L 62,178 L 52,172 L 44,164
    L 36,154 L 30,142 L 26,128 L 22,114
    L 20,100 L 20,86 L 24,72 L 30,60
    L 38,50 L 48,42 L 58,34 L 68,26
    L 80,18 L 92,12 Z
  " fill="#002776" opacity="0.045"/>
</svg>
